{"accessors" : [{"bufferView" : 0, "byteOffset" : 0, "componentType" : 5123, "count" : 31158, "type" : "SCALAR", "max" : [6246], "min" : [0]}, {"bufferView" : 1, "byteOffset" : 0, "componentType" : 5126, "count" : 6247, "type" : "VEC3", "max" : [94.83349609375, 200.0766143798828, 22.41798210144043], "min" : [-94.93524169921875, -0.4304167330265045, -24.417341232299805]}, {"bufferView" : 1, "byteOffset" : 12, "componentType" : 5126, "count" : 6247, "type" : "VEC3", "max" : [0.9999470114707947, 0.9998407363891602, 1.0000039339065552], "min" : [-0.9999823570251465, -0.999992847442627, -0.9999831914901733]}, {"bufferView" : 1, "byteOffset" : 24, "componentType" : 5126, "count" : 6247, "type" : "VEC2", "max" : [0.9970920085906982, -0.005249999929219484], "min" : [0.005861000157892704, -0.9956009984016418]}, {"bufferView" : 1, "byteOffset" : 32, "componentType" : 5126, "count" : 6247, "type" : "VEC2", "max" : [0.9970920085906982, -0.005249999929219484], "min" : [0.005861000157892704, -0.9956009984016418]}, {"bufferView" : 1, "byteOffset" : 40, "componentType" : 5126, "count" : 6247, "type" : "VEC2", "max" : [0.9970920085906982, -0.005249999929219484], "min" : [0.005861000157892704, -0.9956009984016418]}, {"bufferView" : 1, "byteOffset" : 48, "componentType" : 5126, "count" : 6247, "type" : "VEC2", "max" : [0.9970920085906982, -0.005249999929219484], "min" : [0.005861000157892704, -0.9956009984016418]}, {"bufferView" : 1, "byteOffset" : 56, "componentType" : 5126, "count" : 6247, "type" : "VEC2", "max" : [0.9970920085906982, -0.005249999929219484], "min" : [0.005861000157892704, -0.9956009984016418]}, {"bufferView" : 1, "byteOffset" : 64, "componentType" : 5126, "count" : 6247, "type" : "VEC2", "max" : [0.9970920085906982, -0.005249999929219484], "min" : [0.005861000157892704, -0.9956009984016418]}, {"bufferView" : 1, "byteOffset" : 72, "componentType" : 5126, "count" : 6247, "type" : "VEC2", "max" : [0.9970920085906982, -0.005249999929219484], "min" : [0.005861000157892704, -0.9956009984016418]}, {"bufferView" : 1, "byteOffset" : 80, "componentType" : 5126, "count" : 6247, "type" : "VEC2", "max" : [0.9970920085906982, -0.005249999929219484], "min" : [0.005861000157892704, -0.9956009984016418]}, {"bufferView" : 1, "byteOffset" : 88, "componentType" : 5126, "count" : 6247, "type" : "VEC2", "max" : [0.9970920085906982, -0.005249999929219484], "min" : [0.005861000157892704, -0.9956009984016418]}, {"bufferView" : 1, "byteOffset" : 96, "componentType" : 5126, "count" : 6247, "type" : "VEC2", "max" : [0.9970920085906982, -0.005249999929219484], "min" : [0.005861000157892704, -0.9956009984016418]}, {"bufferView" : 1, "byteOffset" : 104, "componentType" : 5126, "count" : 6247, "type" : "VEC2", "max" : [0.9970920085906982, -0.005249999929219484], "min" : [0.005861000157892704, -0.9956009984016418]}, {"bufferView" : 1, "byteOffset" : 112, "componentType" : 5126, "count" : 6247, "type" : "VEC2", "max" : [0.9970920085906982, -0.005249999929219484], "min" : [0.005861000157892704, -0.9956009984016418]}], "asset" : {"generator" : "Aspose.3D 20.12.3", "version" : "2.0"}, "buffers" : [{"uri" : "buffer.bin", "byteLength" : 10347048}], "bufferViews" : [{"buffer" : 0, "byteOffset" : 0, "byteLength" : 62316, "target" : 34963}, {"buffer" : 0, "byteOffset" : 62320, "byteLength" : 3738960, "byteStride" : 120, "target" : 34962}, {"buffer" : 0, "byteOffset" : 3801284, "byteLength" : 3065830}, {"buffer" : 0, "byteOffset" : 6867116, "byteLength" : 3479930}], "images" : [{"mimeType" : "image/png", "bufferView" : 2}, {"mimeType" : "image/png", "bufferView" : 3}], "materials" : [{"pbrMetallicRoughness" : {"baseColorFactor" : [1, 1, 1, 0], "baseColorTexture" : {"index" : 1, "texCoord" : 0}, "metallicFactor" : 0, "roughnessFactor" : 0}, "normalTexture" : {"index" : 0, "texCoord" : 0, "scale" : 1}, "emissiveFactor" : [0, 0, 0], "alphaMode" : "BLEND", "doubleSided" : false}], "meshes" : [{"primitives" : [{"attributes" : {"POSITION" : 1, "NORMAL" : 2, "TEXCOORD_0" : 3, "TEXCOORD_1" : 4, "TEXCOORD_2" : 5, "TEXCOORD_3" : 6, "TEXCOORD_4" : 7, "TEXCOORD_5" : 8, "TEXCOORD_6" : 9, "TEXCOORD_7" : 10, "TEXCOORD_8" : 11, "TEXCOORD_9" : 12, "TEXCOORD_10" : 13, "TEXCOORD_11" : 14}, "indices" : 0, "material" : 0, "mode" : 4}]}], "nodes" : [{"mesh" : 0, "name" : "Akai"}], "samplers" : [{"magFilter" : 9729, "minFilter" : 9729, "wrapS" : 10497, "wrapT" : 10497}, {"magFilter" : 9729, "minFilter" : 9729, "wrapS" : 10497, "wrapT" : 10497}], "scene" : 0, "scenes" : [{"nodes" : [0]}], "textures" : [{"sampler" : 0, "source" : 0}, {"sampler" : 1, "source" : 1}]}